<svg width="400" height="362" viewBox="0 0 400 362" fill="none" xmlns="http://www.w3.org/2000/svg">
<path d="M130.4 42.2669C129.467 45.2002 128.667 52.8002 128.667 60.0002C128.8 71.0669 129.2 73.7336 132.533 81.0669C137.333 91.3336 148.933 102.667 158.267 106C165.6 108.667 169.333 112.534 174.267 121.867C182.533 137.867 185.333 156.934 185.333 196.4V226.8L182.4 225.867C169.6 222 156.267 211.2 150.8 200.534C147.2 193.467 144.8 180.8 145.867 173.334C147.733 160.134 150.533 154.667 162.267 142.534C172.667 131.734 173.333 130.8 171.867 127.6C171.067 125.734 168.933 123.6 167.333 122.667C164.533 121.2 163.333 121.467 158.4 124.4C149.6 129.467 140.4 140.267 135.067 151.467C130.8 160.4 130.133 163.067 129.6 174.667C128.8 190.534 131.733 201.734 139.733 214C148.8 228 162.267 237.467 179.6 242C204.8 248.534 234.133 236.4 248.8 213.2C255.467 202.667 258.667 191.334 258.533 178C258.533 164.4 256.4 156.534 249.333 144.8C245.467 138.534 244.133 137.334 240.933 137.334C230.8 137.334 229.6 143.067 236.533 156.8C244 171.2 244.133 184.534 237.2 199.334C231.333 211.867 217.867 223.067 205.067 226.134L201.333 226.934V199.2C201.467 161.067 204.8 143.067 212.667 138.534C214.933 137.2 222.267 135.6 229.867 134.8C246.667 132.934 254 129.734 263.067 120.134C271.467 111.334 274.933 105.2 277.867 93.7336C281.333 80.4002 281.333 80.5336 270.667 78.6669C244.933 74.2669 221.6 87.2002 212.667 110.534C209.733 118.534 208.133 120.534 202.533 124.667C195.2 130 194.667 130.134 194.667 127.334C194.667 126.267 191.867 120.134 188.4 113.734C182.267 102.134 182.267 101.867 182 88.6669C181.733 71.3336 177.867 62.0002 166.667 51.4669C158.267 43.7336 144.667 37.3336 136.8 37.3336C132.667 37.3336 132 37.8669 130.4 42.2669ZM146.533 44.1335C166.8 51.7336 177.2 65.8669 178 86.6669C178.133 92.4002 178.8 97.7336 179.2 98.5336C179.867 99.4669 178.933 100 176.8 100C174.933 100 171.867 101.467 169.867 103.067L166.267 106.267L158.133 101.734C147.733 96.0002 140.8 88.8002 136.533 79.3336C133.733 73.3336 133.067 69.8669 133.067 60.2669C133.067 48.2669 134.667 41.3336 137.6 41.3336C138.533 41.3336 142.533 42.5336 146.533 44.1335ZM273.867 83.6002C275.733 84.8002 273.867 95.2002 270.267 103.067C262.667 119.867 250 128.534 230.667 130.534C224 131.334 217.467 132.667 216.4 133.6C214.667 134.934 213.733 134.534 210.533 130.934C206 125.867 205.733 124.534 209.2 123.334C210.667 122.934 212.667 120.667 213.733 118.267C214.8 115.867 217.333 110.534 219.333 106.4C224.933 94.1336 237.333 85.3336 252.4 82.8002C258.933 81.6002 271.333 82.1336 273.867 83.6002ZM180.533 109.2C182.4 112 185.2 117.334 186.8 120.8C188.4 124.4 190.933 128.534 192.267 130.134C194.533 132.667 195.333 132.8 200 131.6C203.867 130.534 205.6 130.534 207.2 131.867C208.933 133.334 208.8 134.134 206 138.534C199.067 148.8 197.067 162.534 196.933 198C196.933 223.067 197.067 225.6 199.467 228.134C202.4 231.467 207.067 231.067 216.533 226.667C234.533 218.534 246.667 198.4 246.667 176.667C246.667 168.667 246 165.867 242 157.467C239.467 152.134 237.333 146.667 237.333 145.2C237.333 141.2 241.733 142.134 244.933 147.067C262.4 172.934 253.333 212.8 226.4 229.067C205.6 241.6 186.8 242.134 165.067 231.2C152.667 224.934 141.2 211.334 136.8 197.6C130.4 177.467 135.467 153.334 149.733 137.867C156.667 130.134 166.667 125.2 166.667 129.467C166.667 130.267 162.8 134.934 158.133 139.734C153.467 144.667 147.867 152 145.733 156C142.267 162.8 142 164.4 142 178.667C142 192.134 142.4 194.8 145.2 200.4C151.867 213.734 168.133 227.2 180.8 229.867C184.4 230.667 185.467 230.267 187.867 227.2C190.533 223.867 190.667 222.134 190.667 197.334C190.667 153.2 186 129.867 173.467 111.467C172.133 109.334 171.2 106.8 171.6 105.867C172.933 102.267 177.333 104 180.533 109.2Z" fill="rgba(42, 224, 153, 1)"/>
<path d="M112 96.8002C106.533 100.533 97.2001 109.733 95.2001 113.6C94.1334 115.6 93.3334 118.933 93.3334 120.933C93.3334 124.667 97.7334 133.333 99.6001 133.333C100.267 133.333 102.4 134.933 104.4 136.667C107.467 139.333 107.867 140.4 106.667 142.533C105.467 144.933 104.4 145.2 96.6668 144.4C89.8668 143.733 87.3334 144.133 84.6668 145.867C80.1334 148.933 77.3334 155.6 77.3334 163.6V170H61.4668C47.7334 170.133 45.0668 170.4 42.8001 172.533C39.2001 175.733 39.2001 181.6 42.8001 184.8C45.2001 187.067 47.7334 187.333 61.4668 187.2H77.3334V192.533C77.3334 200.8 79.7334 207.6 83.7334 210.667C86.6668 213.067 88.8001 213.467 96.4001 213.067C103.867 212.8 105.733 213.067 106.8 214.933C107.733 216.667 106.8 218 102.667 221.333C96.4001 226.267 93.3334 231.467 93.3334 237.067C93.3334 240.8 98.5334 249.467 103.2 253.2C105.2 254.933 104.267 256.267 92.0001 268.667C77.7334 283.333 76.1334 286.8 81.3334 292C86.0001 296.667 88.8001 295.333 103.333 281.2L117.2 267.733L124 273.2C129.733 277.733 132 278.667 136.667 278.667C141.867 278.667 142.933 278 148.4 272C152 268 155.6 265.333 157.2 265.333C159.867 265.333 160 266 160 275.867C160 285.2 160.4 286.933 163.2 290.267C166 293.467 167.467 294 175.867 294.4L185.333 294.933V314.933C185.333 325.867 185.867 336 186.667 337.333C188.533 340.8 194.267 341.867 198.133 339.333C201.333 337.333 201.333 336.933 201.333 316.8C201.333 294 201.067 294.667 210.8 294.667C217.467 294.667 224.667 291.733 226.533 288.267C227.333 286.667 228 281.2 228 276C228 263.467 230 262.667 238.533 271.867C244.4 278.133 245.333 278.667 250.933 278.667C256.267 278.667 258.133 277.867 264.667 272.533L272.133 266.4L281.333 276.267C293.067 289.067 299.867 293.733 304.533 292.533C308.267 291.6 310.667 288.4 310.667 284.533C310.667 283.333 304.533 276.133 297.2 268.533C283.733 254.933 283.6 254.8 285.867 251.733C287.067 250 289.6 246.667 291.333 244.133C296.667 236.8 295.867 232.667 287.467 224.533C282.267 219.467 280.4 216.8 280.933 214.933C281.467 212.667 282.533 212.533 291.067 213.067C299.467 213.6 301.2 213.2 304.267 210.8C308.267 207.6 310.667 200.8 310.667 192.533V187.067L325.733 187.2C335.6 187.333 341.733 186.8 343.6 185.6C347.733 183.333 348.8 178.133 346.133 174.133C344.4 171.467 342.533 170.667 335.2 170C330.267 169.467 322.8 169.333 318.533 169.867L310.667 170.667V163.6C310.667 155.467 307.467 148.133 302.667 145.6C300.4 144.4 296.533 144.133 290.933 144.533C282.933 145.2 282.533 145.067 280.933 141.733C279.6 138.8 279.733 138.133 281.333 137.6C282.4 137.2 285.867 134.4 289.067 131.333C296.267 124.133 296.8 117.867 290.8 111.867C288.667 109.733 286 108 284.933 108C282.4 108 279.333 111.6 276.933 117.467C275.733 120.4 272.533 124 268.933 126.4C263.067 130.533 261.333 132.933 261.333 136.933C261.333 140.8 271.067 161.467 273.467 162.8C275.867 164 278.933 163.867 289.733 161.867L293.333 161.067V178.667V196.267L286.4 195.333C282.533 194.933 278.267 194.133 277.067 193.867C273.6 192.8 270.133 197.2 265.6 208.4C260 221.6 260.133 224.267 266.133 228.933C268.8 230.933 272.267 233.733 273.733 234.933L276.667 237.2L270 244C266.4 247.733 260.533 253.2 257.067 256.133L250.933 261.333L248.267 257.067C243.867 250 240.133 246.667 236.533 246.667C230.933 246.667 212.133 254.533 210.533 257.6C209.067 260.267 209.6 271.867 211.467 276.533C212.133 278.4 210.133 278.667 194 278.667C177.333 278.667 175.867 278.533 176.533 276.267C178.267 270.133 178.8 260 177.467 257.6C176.667 256.133 171.6 253.2 165.733 250.933C148.4 244 149.2 244 142 253.2C138.533 257.733 135.467 261.333 135.467 261.333C135.333 261.333 129.733 255.733 123.067 248.8L110.8 236.4L117.467 232.133C125.067 227.2 127.2 223.867 126.267 218.667C125.067 213.067 116 194.667 114.267 194.533C111.867 194.267 112 194.267 103.067 195.2L94.6668 196.133V178.8V161.333L101.067 162.267C114.267 164.267 114.8 164.133 118.933 156C124.8 144.4 127.067 137.733 126.133 134.4C125.733 132.667 122.133 128.933 118.133 126L110.933 120.667L118.133 113.067C125.867 104.933 126.8 101.467 122.667 97.3335C119.467 94.1335 116.267 94.0002 112 96.8002ZM116.667 107.067C109.333 117.2 108 119.2 108 120.8C108 121.733 111.067 125.467 114.667 128.933C118.4 132.4 121.333 136.4 121.333 137.6C121.333 140.533 113.867 156.267 111.733 157.467C110.933 158 107.067 158.133 103.067 157.733C96.8001 157.067 95.4668 157.333 92.6668 160C89.4668 162.933 89.3334 163.867 89.3334 178.667C89.3334 198.533 90.4001 200.4 101.2 200C112.8 199.467 112.8 199.467 116.533 207.467C122.533 220.133 122.4 221.067 114.8 228.4C111.067 231.867 108 235.867 108 237.333C108 241.067 131.2 264 135.067 264C136.933 264 140.533 261.6 144 258C150.933 250.933 153.333 250.667 164.133 255.467C172.933 259.467 174.133 261.733 172.8 271.2C172.133 275.733 172.4 277.6 174.533 280.133C176.933 283.2 177.733 283.333 194 283.333C210.4 283.333 210.933 283.2 213.6 280C215.867 277.333 216.133 275.6 215.333 269.733C214.533 263.067 214.667 262.4 218.4 258.933C222.4 255.2 230.4 252 235.733 252C237.333 252 240.267 254.267 242.667 257.333C248 264 251.867 265.067 257.6 261.6C263.733 257.733 280 240.267 280 237.6C280 235.333 271.333 225.333 269.333 225.333C266.8 225.333 266.8 218.4 269.467 211.733C273.867 200.133 274.8 199.333 284.133 199.733C296.667 200.267 297.333 199.2 297.333 179.467C297.333 158.533 296.267 156.8 285.6 157.733C281.467 158.133 277.067 157.867 275.867 157.333C273.733 156.133 266.667 140.533 266.667 136.933C266.667 136.133 270 132.133 274 128.267C278 124.267 281.333 120.267 281.333 119.333C281.333 118.4 282.267 116.933 283.333 116C284.933 114.667 285.733 114.667 287.333 116C291.2 119.2 289.733 124.4 282.667 131.333C275.2 138.667 274.667 140.933 279.067 146C282 149.467 282.8 149.733 293.2 149.2C298.267 149.067 299.733 149.6 302.267 152.533C304 154.533 305.333 157.467 305.467 159.067C305.867 172.8 308.133 174.667 324.667 174.667C338.133 174.667 341.333 175.333 341.333 178.133C341.333 181.333 336.4 182.667 324.4 182.667C309.733 182.667 307.2 184.133 306 193.067C304.133 206.533 302.667 208 289.067 208C282.533 208 281.2 208.4 278.8 211.467C277.2 213.467 276 215.867 276 216.933C276 218 278.933 222 282.667 225.867C286.933 230.267 289.333 234.133 289.333 236.133C289.333 237.867 287.2 242.4 284.667 246C281.067 251.067 280.133 253.467 280.667 256C281.2 257.867 286.933 264.8 293.6 271.6C300.133 278.4 305.2 284.533 304.667 285.333C302.667 288.533 298 286 287.067 275.333C280.667 269.067 274.267 263.6 272.933 263.2C271.467 262.8 268.133 264.267 263.867 267.333C251.467 276.267 249.333 276.133 239.067 265.867C230.4 257.2 223.733 261.2 223.467 275.2C223.2 286.4 221.2 288.8 210.4 290C198.533 291.467 197.333 293.067 197.2 308.933C197.2 321.333 196.267 333.467 195.2 334.533C194.933 334.8 193.867 334.667 192.667 334.267C191.067 333.6 190.667 330.4 190.667 314.933C190.667 297.467 190.533 296.267 187.733 293.733C185.733 291.867 181.867 290.533 177.067 290C166.8 288.667 164.933 286.4 164.267 274.533C163.733 266.933 163.2 264.933 160.933 263.333C156.4 260.133 153.733 260.933 146.133 267.867C137.467 275.733 135.067 275.733 125.6 268.667C122.4 266.133 118.667 264 117.6 264C114.933 264 109.2 268.4 98.2668 279.2C89.6001 287.733 84.0001 290.267 84.0001 285.867C84.0001 284.667 88.0001 279.733 92.8001 274.8C109.067 258.667 110.533 255.2 104.8 248.4C96.9334 238.8 96.6668 233.6 103.867 226.8C110.267 220.8 112 217.467 110.533 213.733C109.067 209.6 105.2 208 96.6668 208C86.0001 208 84.5334 206.933 82.6668 196.8C80.1334 183.6 80.0001 183.467 62.8001 182.667C47.2001 182 43.6001 180.533 47.3334 176.8C49.0668 175.067 52.2668 174.667 62.8001 174.667C78.4001 174.667 80.6668 173.333 82.0001 163.067C83.6001 150.933 87.0668 148 98.8001 149.067C104.667 149.467 106.4 149.2 108.133 147.2C112.533 142.267 112.4 139.333 107.733 134.533C101.2 127.867 98.6668 123.733 98.6668 120C98.6668 116 108.133 105.067 114 102C117.6 100.267 118 100.267 118.4 102.133C118.667 103.2 117.867 105.467 116.667 107.067Z" fill="rgba(42, 224, 153, 1)"/>
</svg>
