<svg width="861" height="567" viewBox="0 0 861 567" fill="none" xmlns="http://www.w3.org/2000/svg">
<path d="M443.64 63.9605C427.388 70.8751 421.164 82.63 422.547 104.065L423.584 122.389L454.359 134.49L484.788 146.59L491.358 138.639C495.161 134.144 497.928 129.304 497.928 127.921C497.928 126.192 488.937 122.043 478.218 118.586C458.854 112.017 458.163 111.326 457.125 98.5336L456.088 85.3958L476.835 87.8159C493.432 89.8903 497.928 89.1989 497.928 85.3958C497.928 76.0611 471.994 58.4287 458.854 58.7745C456.434 59.1202 449.864 61.1946 443.64 63.9605Z" fill="rgba(42, 224, 153, 1)"/>
<path d="M192.947 125.155C191.91 132.07 190.181 132.761 176.004 132.07C164.939 131.378 159.06 132.415 155.948 136.219C149.724 143.479 153.873 144.862 188.452 145.899C214.04 146.936 216.114 147.628 217.152 154.542C218.189 162.148 217.498 162.148 175.658 163.186C140.734 164.223 133.126 165.26 133.126 169.409C133.126 173.558 140.734 174.595 175.658 175.632C217.498 176.669 218.189 176.669 217.152 184.275C216.114 191.536 214.731 191.881 165.284 192.919C123.445 193.61 114.108 194.647 114.108 198.796C114.108 202.945 123.445 203.982 165.284 204.673C215.077 205.711 216.114 205.711 217.152 213.317C218.189 220.231 216.806 221.269 205.741 221.269H193.293L194.33 247.89L195.367 274.857H281.813H368.259L369.296 196.03L369.988 117.549H282.159H193.984L192.947 125.155Z" fill="rgba(42, 224, 153, 1)"/>
<path d="M417.36 145.553C408.37 150.739 403.183 163.531 392.464 205.71C381.053 249.964 382.09 258.607 399.725 275.548L411.828 286.957H358.231H304.289V297.329V307.701H382.09H459.892V299.749C459.892 292.489 461.275 291.798 470.611 293.18C482.713 294.909 482.713 292.143 471.648 343.312C467.153 365.784 466.461 375.119 468.882 379.613C473.377 386.528 483.751 388.602 490.32 384.454C493.087 382.725 500.348 360.252 506.918 334.323C522.824 271.399 519.712 264.485 473.723 256.187C437.416 249.618 438.107 249.964 440.528 235.443C441.565 228.529 444.331 217.12 446.406 209.513L450.21 196.03L466.461 212.279L483.059 228.874L513.142 227.491C529.394 226.8 542.879 226.454 542.879 226.8C542.879 226.8 545.992 243.741 549.795 264.485C559.823 318.765 559.131 327.408 542.879 359.215C525.245 394.48 520.749 397.591 486.517 397.591C462.658 397.591 458.508 396.554 451.247 388.948C441.219 379.268 440.873 373.39 447.789 342.274C450.555 329.828 452.63 318.419 452.976 317.036C452.976 314.27 339.905 315.999 266.945 319.802C232.712 321.876 227.871 322.568 228.908 327.754C229.946 332.94 235.824 333.631 270.748 334.668C310.859 335.705 311.551 335.705 310.513 343.312L309.476 350.918L215.423 351.955C134.51 352.646 121.024 353.338 121.024 357.832C121.024 362.327 131.743 363.018 194.676 363.018C234.787 363.018 270.057 364.401 272.823 366.13C275.589 367.859 276.626 371.662 275.589 374.773C273.86 379.268 265.216 380.305 224.067 380.996C180.153 382.034 174.62 382.725 173.583 387.911C172.546 393.443 175.658 394.134 205.395 394.134H238.245L236.17 412.804L234.095 431.819L245.852 432.856C256.225 433.893 257.608 435.276 259.683 446.34C269.365 506.497 357.54 505.114 369.988 444.611L372.063 433.893L451.939 432.165C530.086 430.436 532.16 430.09 540.459 422.138L549.104 414.187L551.524 429.399C556.365 461.206 562.243 459.823 579.878 423.176C594.055 393.443 609.27 378.576 630.017 373.736C657.334 367.167 672.202 361.29 673.586 356.795C677.043 345.732 625.176 337.434 603.046 345.732C593.71 349.189 593.71 349.189 599.588 340.891C607.887 327.754 606.504 318.765 588.177 271.745C578.841 247.89 572.271 228.183 573.654 227.837C574.692 227.837 581.261 227.491 587.831 227.146L599.934 226.454V203.982V181.509L582.645 181.855C553.599 182.201 539.422 186.004 539.422 193.61C539.422 199.833 537.001 200.524 517.292 200.524H494.816L473.377 174.249C461.275 160.074 448.826 146.59 445.714 144.862C437.761 140.713 425.313 141.059 417.36 145.553ZM345.783 439.771C345.783 443.92 341.634 451.871 336.447 457.057C325.728 468.121 307.401 470.195 294.953 461.552C287.346 456.366 279.047 437.696 282.505 434.239C283.888 433.202 298.411 432.165 315.354 432.165C344.4 432.165 345.783 432.51 345.783 439.771Z" fill="rgba(42, 224, 153, 1)"/>
<path d="M637.278 378.231C610.307 384.799 602.354 391.714 588.869 420.756C578.495 443.574 577.458 448.068 580.916 456.366C597.167 495.088 654.567 503.385 682.23 470.541C699.865 449.106 701.94 422.138 687.071 397.937C681.193 388.257 662.175 372.699 656.988 373.736C655.951 373.736 647.306 375.81 637.278 378.231ZM663.904 410.384C673.931 423.176 672.894 440.116 661.137 453.254C638.316 478.838 596.822 457.403 603.392 423.176C608.578 395.171 645.923 387.565 663.904 410.384Z" fill="rgba(42, 224, 153, 1)"/>
</svg>
