<svg width="400" height="352" viewBox="0 0 400 352" fill="none" xmlns="http://www.w3.org/2000/svg">
<path d="M203 62.0555C197.267 67.2555 191 78.3222 191 83.2555C191 90.8555 194.2 96.3222 205.533 108.456C213.4 116.856 217.533 122.322 218.067 125.122C219.267 130.722 216.333 137.522 209.667 144.722C203.933 150.989 202.867 154.589 206.867 154.589C213.667 154.589 225.667 138.056 225.667 128.722C225.667 120.989 221.133 112.989 212.6 105.122C203.4 96.8555 199 90.0555 199 84.1889C199 78.7222 200.467 75.7889 207.4 67.5222C212.2 61.7889 212.467 60.8555 210.733 58.9889C208.867 57.2555 208.067 57.5222 203 62.0555Z" fill="rgba(42, 224, 153, 1"/>
<path d="M158.733 65.1221C153.4 70.9887 149.667 78.9887 149.667 84.0554C149.667 90.9887 153.267 97.1221 163.533 107.789C176.6 121.389 178.867 126.455 175.667 134.189C174.467 136.989 171.533 141.389 169 143.922C163.933 149.255 162.6 153.655 165.933 154.322C169.267 154.989 177.133 147.255 180.867 139.655C187.4 126.589 184.6 117.655 169.667 103.522C159.933 94.3221 157.667 90.5887 157.667 83.7887C157.667 78.8554 159.267 75.6554 165.8 67.7887C171.8 60.5887 172.2 58.5887 167.8 58.5887C165.667 58.5887 162.6 60.7221 158.733 65.1221Z" fill="rgba(42, 224, 153, 1"/>
<path d="M242.733 63.5222C237.667 68.7222 232.467 78.7222 232.333 83.1222C232.333 90.5889 235.933 96.9889 246.733 108.189C262.467 124.456 263.267 130.989 251.133 144.722C245.133 151.522 244.2 154.589 248.333 154.589C252.067 154.589 261 146.056 264.2 139.389C269.933 127.789 266.6 116.589 253.933 105.122C244.6 96.5889 240.333 90.0555 240.333 83.7889C240.333 79.1222 241.933 76.1889 250.067 66.0555C256.867 57.6555 250.6 55.5222 242.733 63.5222Z" fill="rgba(42, 224, 153, 1"/>
<path d="M108.333 108.322C105.667 113.789 103.533 116.055 98.0667 119.255C94.2 121.389 91.1333 123.655 91 124.189C91 124.722 94.2 127.255 98.2 129.789C103.8 133.389 106.2 136.055 109 141.789C113.133 150.189 114.867 150.055 118.467 141.389C121.133 134.989 123.933 132.189 131.533 128.322L138.067 124.989L132.2 121.655C123.8 116.722 121.8 114.722 118.2 107.522C116.467 104.055 114.2 101.255 113.267 101.255C112.467 101.255 110.2 104.455 108.333 108.322ZM117.533 120.055C119.8 122.322 121.667 124.322 121.667 124.589C121.667 124.722 119.8 126.989 117.667 129.255L113.533 133.655L109 129.255L104.333 124.722L108.6 120.322C111 117.922 113 115.922 113.133 115.922C113.267 115.922 115.267 117.789 117.533 120.055Z" fill="rgba(42, 224, 153, 1"/>
<path d="M119 166.989C114.733 169.122 109.667 176.722 109.667 180.855C109.667 186.189 113.667 193.255 117.933 195.389C120.067 196.455 124.733 197.789 128.467 198.189C132.067 198.589 135 199.255 135 199.655C135 199.922 131.933 209.655 128.2 221.122C120.6 244.722 119.267 252.055 121.667 259.255C123.8 265.655 131.267 273.922 138.2 277.655C143.533 280.589 145 280.589 204.333 280.989C245.8 281.255 267.133 280.989 271.933 279.922C281.133 277.922 288.2 272.589 292.867 264.055C296.2 257.789 296.6 256.055 295.933 248.722C295.4 242.322 287 213.389 282.2 200.589C281.533 198.989 282.6 198.589 286.467 198.455C298.867 198.322 307 191.389 307 180.989C307 176.989 305.933 174.722 302.467 170.855L297.933 165.922L210.067 165.655C141.533 165.389 121.667 165.655 119 166.989ZM295.267 173.522C296.467 174.455 298.333 176.855 299.533 178.722C301.667 182.189 301.667 182.455 298.2 186.455L294.733 190.589H208.6C130.333 190.589 122.333 190.322 120.067 188.322C115.667 184.455 117.533 174.855 123 172.855C124.067 172.455 162.867 172.055 209.133 172.055C274.467 171.922 293.667 172.322 295.267 173.522ZM282.333 224.189C290.867 252.055 291.133 255.655 284.6 263.789C282.6 266.455 278.467 269.789 275.533 271.255C270.6 273.789 267 273.922 213.667 274.322C176.333 274.722 154.333 274.322 149.133 273.389C139.4 271.522 132.867 266.855 129.4 258.855C126.067 251.522 126.6 248.722 136.333 219.255L142.867 199.255L207.933 198.589C243.667 198.189 273.4 198.189 273.8 198.589C274.2 198.989 278.067 210.455 282.333 224.189Z" fill="rgba(42, 224, 153, 1"/>
<path d="M217.267 207.256C213.133 208.322 207.667 210.189 205.267 211.389C193.267 217.522 181 232.189 177.8 244.189C176.6 249.122 175.267 250.589 169 254.322C164.2 257.256 161.667 259.656 161.667 261.389C161.667 264.722 165 264.589 171.667 260.989C176.467 258.322 179 258.056 195 257.922C211.933 257.922 213.4 257.656 220.6 254.189C236.733 246.322 249.4 229.789 250.067 215.922C250.333 210.189 250.2 209.922 245.533 208.322C237.267 205.656 225.667 205.122 217.267 207.256ZM243.8 214.856C245.8 216.856 237 232.189 230.2 238.589C220.6 247.789 213 250.856 199.4 251.656C193.267 251.922 188.333 251.922 188.333 251.522C188.333 251.256 195.4 246.856 204.067 242.056C224.867 230.189 224.867 230.189 222.867 226.856C220.867 223.789 222.733 222.989 197.133 238.189C190.6 242.056 185 245.256 184.733 245.256C182.6 245.256 192.867 230.456 198.6 225.256C208.733 215.922 216.733 213.122 231.267 213.656C237.667 213.922 243.267 214.456 243.8 214.856ZM185.667 249.256C185.667 250.989 184.733 251.922 183.133 251.922C181.267 251.922 180.733 251.256 181.267 249.256C181.667 247.789 182.867 246.589 183.8 246.589C184.867 246.589 185.667 247.789 185.667 249.256Z" fill="rgba(42, 224, 153, 1"/>
<path d="M171 297.922L155.667 306.589H142.2C131.8 306.589 128.333 306.989 127 308.589C125.667 310.189 125.667 310.989 127 312.589C128.333 314.189 131.933 314.589 142.867 314.589H157.133L169.267 307.389L181.4 300.189L182.333 307.389C182.733 311.389 183.8 314.589 184.467 314.589C186.333 314.589 195.8 309.656 204.067 304.456C207.8 301.922 211 300.056 211 300.322C211.133 300.456 211.267 303.522 211.533 306.989C211.8 310.589 212.333 313.789 212.733 314.056C213.933 315.389 218.333 313.389 229.533 306.722L240.333 300.189V303.922C240.333 306.056 240.867 309.256 241.667 311.122L243 314.589H265.933C287 314.589 289.133 314.322 290.6 312.056C293.267 307.922 287.533 306.589 267 306.589H248.333V299.389C248.333 288.456 246.867 288.189 232.467 296.722C225.667 300.589 219.8 303.922 219.533 303.922C219.267 303.922 219 300.856 219 297.256C219 291.256 218.733 290.589 216.067 290.589C214.333 290.589 208.067 293.656 201.933 297.256C195.8 300.989 190.467 303.922 189.933 303.922C189.4 303.922 189.133 301.656 189.4 298.856C189.667 296.189 189 292.856 188.067 291.656C186.467 289.389 185.133 289.922 171 297.922Z" fill="rgba(42, 224, 153, 1"/>
<path d="M291.333 74.0666C288.667 79.5333 286.533 81.8 281.067 85C277.2 87.1333 274.133 89.4 274 89.9333C274 90.4666 277.2 93 281.2 95.5333C286.8 99.1333 289.2 101.8 292 107.533C296.133 115.933 297.867 115.8 301.467 107.133C304.133 100.733 306.933 97.9333 314.533 94.0666L321.067 90.7333L315.2 87.4C306.8 82.4666 304.8 80.4666 301.2 73.2666C299.467 69.8 297.2 67 296.267 67C295.467 67 293.2 70.2 291.333 74.0666ZM300.533 85.8C302.8 88.0666 304.667 90.0666 304.667 90.3333C304.667 90.4666 302.8 92.7333 300.667 95L296.533 99.4L292 95L287.333 90.4666L291.6 86.0666C294 83.6666 296 81.6666 296.133 81.6666C296.267 81.6666 298.267 83.5333 300.533 85.8Z" fill="rgba(42, 224, 153, 1"/>
</svg>
