<svg width="513" height="472" viewBox="0 0 513 472" fill="none" xmlns="http://www.w3.org/2000/svg">
<path d="M249.768 33.9467C247.215 36.5043 246.054 42.0846 246.054 52.3151C246.054 71.1486 247.447 74.4038 255.339 74.4038C263.232 74.4038 264.624 71.1486 264.624 52.3151C264.624 38.1319 261.375 30.2265 255.339 30.2265C254.179 30.2265 251.625 31.854 249.768 33.9467Z" fill="rgba(42, 224, 153, 1)"/>
<path d="M181.059 61.6157C176.648 66.9634 180.362 74.6363 193.826 86.727C204.504 96.4925 206.825 97.6551 211.003 95.3299C218.895 91.1447 216.574 85.0994 202.182 71.3812C187.326 57.1979 185.469 56.2679 181.059 61.6157Z" fill="rgba(42, 224, 153, 1)"/>
<path d="M305.943 71.6139C298.515 79.2868 292.48 86.4947 292.48 87.8898C292.48 90.9124 298.979 97.6553 301.997 97.6553C306.175 97.6553 331.941 71.6139 331.941 67.4287C331.941 62.7784 327.531 58.1282 322.888 58.1282C321.031 58.1282 313.603 64.1735 305.943 71.6139Z" fill="rgba(42, 224, 153, 1)"/>
<path d="M237.93 86.9597C215.646 97.1902 205.664 121.604 214.717 143.46C216.574 147.878 218.199 152.528 218.199 153.691C218.199 154.853 201.254 156.016 180.595 156.248L142.758 156.946L117.92 237.163C103.993 281.107 93.3149 319.007 94.2434 321.332C95.404 325.052 100.511 325.517 159.703 325.982L224.002 326.68V368.532V410.384L207.289 411.082C192.665 411.779 190.344 412.244 188.951 416.662C185.701 426.893 191.504 427.823 254.179 427.823C315.692 427.823 321.728 426.893 319.871 417.127C319.174 413.407 316.621 412.477 302.925 411.547L286.676 410.384L285.98 368.765L285.516 327.377L349.119 328.075C396.472 328.773 413.65 328.307 415.739 326.215C417.828 324.122 417.596 319.705 414.346 306.451C409.704 286.688 372.099 166.014 368.849 159.969C366.76 156.248 362.814 155.783 329.62 155.783C309.193 155.783 292.48 154.853 292.48 153.691C292.48 152.528 294.104 147.645 296.194 142.763C303.854 124.394 296.658 102.538 279.016 90.6799C269.499 83.937 248.376 82.0769 237.93 86.9597ZM271.124 106.026C274.142 108.118 278.32 113.466 280.177 118.116C287.373 135.322 274.374 154.156 255.339 154.156C243.037 154.156 234.216 147.645 230.038 135.555C227.02 127.184 227.252 125.557 231.198 117.186C238.858 101.143 256.268 96.2602 271.124 106.026ZM194.986 173.222C194.986 174.384 187.79 202.053 181.987 222.514L178.505 234.838H159.007C148.329 234.838 139.044 234.14 138.58 232.977C137.883 232.047 141.829 218.097 146.936 201.588L156.221 172.059H175.72C186.398 172.059 194.986 172.524 194.986 173.222ZM246.054 203.448V234.838H221.681C208.218 234.838 197.308 234.373 197.308 233.442C197.308 232.28 210.771 179.965 212.396 174.849C213.092 172.989 218.663 172.059 229.805 172.059H246.054V203.448ZM300.372 201.821C305.014 218.097 308.728 232.28 308.728 233.21C308.728 235.303 265.089 235.303 263.928 232.977C263.464 232.047 263.464 218.097 264.16 201.588L265.089 172.059H278.552H291.783L300.372 201.821ZM364.671 201.123C369.546 216.469 373.724 230.42 373.724 231.815C373.724 234.14 367.689 234.838 350.743 234.838H327.763L325.209 227.165C320.799 212.981 311.05 176.942 311.05 174.384C311.05 172.757 318.478 172.059 333.334 172.524L355.85 173.222L364.671 201.123ZM173.166 255.066C172.47 257.391 169.22 270.412 165.738 284.13L159.703 309.241H136.49C113.742 309.241 113.51 309.241 114.903 303.894C120.938 284.595 130.687 254.369 131.616 252.741C132.08 251.811 142.061 251.113 153.436 251.113C172.238 251.113 174.327 251.578 173.166 255.066ZM245.59 279.48L244.894 308.079L211.932 308.776C174.327 309.474 176.184 310.869 182.219 289.245C184.076 282.27 187.326 270.877 189.183 263.902L192.897 251.113H219.592H246.286L245.59 279.48ZM320.335 274.365C323.817 286.455 327.299 299.243 328.227 302.731L329.62 309.241H295.962H262.303V280.177V250.881L288.301 251.578L314.067 252.276L320.335 274.365ZM386.491 271.342C389.741 282.735 393.455 294.826 394.615 298.546C399.026 311.567 398.794 311.567 373.028 311.567H348.886L341.458 285.293C337.28 271.109 333.566 257.391 332.87 255.066C331.709 251.578 333.798 251.113 356.082 251.113H380.456L386.491 271.342ZM269.267 369.927V411.547H255.339H241.412V369.927V328.075L253.714 327.377C260.214 326.912 266.481 326.912 267.642 327.377C268.571 327.842 269.267 346.908 269.267 369.927Z" fill="rgba(42, 224, 153, 1)"/>
<path d="M160.632 121.372C156.453 125.557 157.382 132.067 162.256 134.857C164.81 136.02 173.166 137.183 181.059 137.183C197.075 137.183 204.271 134.392 204.271 128.347C204.271 120.674 199.165 118.582 181.059 118.582C170.381 118.582 162.256 119.744 160.632 121.372Z" fill="rgba(42, 224, 153, 1)"/>
<path d="M306.871 121.372C302.693 125.557 303.622 132.067 308.496 134.857C311.05 136.02 319.406 137.183 327.299 137.183C343.315 137.183 350.511 134.392 350.511 128.347C350.511 120.674 345.404 118.582 327.299 118.582C316.621 118.582 308.496 119.744 306.871 121.372Z" fill="rgba(42, 224, 153, 1)"/>
</svg>
